<svg width="187" height="83" viewBox="0 0 187 83" fill="none" xmlns="http://www.w3.org/2000/svg">
<path d="M131 60H104C99.5817 60 96 56.4183 96 52V32.5M96 32.5H131M96 32.5V13C96 8.58172 99.5817 5 104 5H131" stroke="#774FD1" stroke-width="5"/>
<path d="M85.77 0.269998L67.59 63H58.41L43.83 12.51L28.71 63L19.62 63.09L2.07 0.269998H10.8L24.48 53.46L39.6 0.269998H48.78L63.18 53.28L76.95 0.269998H85.77Z" fill="#774FD1"/>
<path d="M179 61.0002H152C147.582 61.0002 144 57.4185 144 53.0002V13.0181C144 8.59979 147.582 5.01807 152 5.01807H179" stroke="#774FD1" stroke-width="5"/>
<path d="M176.865 4C188.169 13.9197 186.5 33.0089 161 36.0625C172.775 45.2232 183 47.7679 183 61H172.775" stroke="#774FD1" stroke-width="5"/>
</svg>
